<svg width="88" height="88" viewBox="0 0 88 88" fill="none" xmlns="http://www.w3.org/2000/svg">
<path d="M60.5 20.9V25.3H56.1V31.9H60.5V36.3H67.1V31.9H71.5V25.3H67.1V20.9H60.5ZM69.3 27.5V29.7H64.9V34.1H62.7V29.7H58.3V27.5H62.7V23.1H64.9V27.5H69.3Z" fill="#00CACD"/>
<path d="M37.4 12.1C39.2194 12.1 40.7 10.6195 40.7 8.8C40.7 6.98054 39.2194 5.5 37.4 5.5C35.5805 5.5 34.1 6.98054 34.1 8.8C34.1 10.6195 35.5805 12.1 37.4 12.1ZM37.4 7.7C38.006 7.7 38.5 8.19402 38.5 8.8C38.5 9.40598 38.006 9.9 37.4 9.9C36.794 9.9 36.3 9.40598 36.3 8.8C36.3 8.19402 36.794 7.7 37.4 7.7Z" fill="#00CACD"/>
<path d="M78.1 38.5H70.7354C73.8527 36.3088 75.9 32.6921 75.9 28.6C75.9 22.299 71.058 17.1138 64.9 16.5559V7.69998H51.4976C51.0419 6.42272 49.8319 5.49998 48.3999 5.49998H47.1889C46.6782 2.99311 44.4566 1.09998 41.7999 1.09998H32.9999C30.3432 1.09998 28.1215 2.99311 27.6109 5.49998H26.3999C24.9679 5.49998 23.7579 6.42269 23.3022 7.69998H9.89978V62.7H53.3944L53.5398 64.2984C53.799 67.1496 56.1532 69.3 59.0176 69.3H68.5812C71.4456 69.3 73.7999 67.1496 74.0581 64.2984L75.8034 45.1006H78.0992L78.1 38.5ZM73.7 28.6C73.7 34.0582 69.2582 38.5 63.8 38.5C58.3417 38.5 53.9 34.0582 53.9 28.6C53.9 23.1417 58.3417 18.7 63.8 18.7C69.2582 18.7 73.7 23.1417 73.7 28.6ZM51.7955 45.1L52.7953 56.1H27.5004V45.1H16.5004V14.3H23.3026C23.7579 15.5772 24.9679 16.5 26.4004 16.5H48.4004C49.8324 16.5 51.0424 15.5773 51.4981 14.3H58.3004V17.8352C54.389 19.8427 51.7004 23.9083 51.7004 28.6C51.7004 32.6921 53.7476 36.3088 56.865 38.5H49.5004V45.1H51.7955ZM25.3 54.5448L18.0552 47.3H25.3V54.5448ZM62.7 16.5564C61.9432 16.6247 61.2096 16.7676 60.5 16.9699V12.1005H51.7V9.90049H62.7V16.5564ZM25.3 8.80048C25.3 8.1945 25.794 7.70048 26.4 7.70048H29.7V6.60048C29.7 4.78102 31.1805 3.30048 33 3.30048H41.8C43.6194 3.30048 45.1 4.78102 45.1 6.60048V7.70048H48.4C49.006 7.70048 49.5 8.1945 49.5 8.80048V13.2005C49.5 13.8065 49.006 14.3005 48.4 14.3005H26.4C25.794 14.3005 25.3 13.8065 25.3 13.2005V8.80048ZM12.1 60.5005V9.90048H23.1V12.1005H14.3V46.6556L25.9448 58.3004H52.996L53.1963 60.5004L12.1 60.5005ZM73.3958 47.3005H67.1002V49.5005H73.1954L72.995 51.7005H69.3001V53.9005H72.7946L72.5942 56.1005H67.1002V58.3005H72.3954L72.195 60.5005H69.3002V62.7005H71.9952L71.8676 64.0996C71.7124 65.8099 70.3 67.1005 68.5818 67.1005H59.0182C57.2999 67.1005 55.8876 65.8099 55.7324 64.0996L54.0048 45.1004H73.5961L73.3958 47.3005ZM75.9002 42.9005H51.7002V40.7005H75.9002V42.9005Z" fill="#00CACD"/>
<path d="M40.7 40.7C40.7 36.0712 37.8222 32.1091 33.7656 30.4886C35.3056 29.2786 36.3 27.4052 36.3 25.3C36.3 21.6601 33.3398 18.7 29.7 18.7C26.0601 18.7 23.1 21.6601 23.1 25.3C23.1 27.4052 24.0944 29.2786 25.6344 30.4886C21.5776 32.1091 18.7 36.071 18.7 40.7V42.9H40.7V40.7ZM25.3 25.3C25.3 22.8735 27.2735 20.9 29.7 20.9C32.1264 20.9 34.1 22.8735 34.1 25.3C34.1 27.7264 32.1264 29.7 29.7 29.7C27.2735 29.7 25.3 27.7264 25.3 25.3ZM20.9 40.7C20.9 35.8476 24.8476 31.9 29.7 31.9C34.5523 31.9 38.5 35.8476 38.5 40.7H20.9Z" fill="#00CACD"/>
<path d="M29.7 45.1H31.9V47.3H29.7V45.1Z" fill="#00CACD"/>
<path d="M34.1 45.1H47.3V47.3H34.1V45.1Z" fill="#00CACD"/>
<path d="M29.7 49.5H47.3V51.7H29.7V49.5Z" fill="#00CACD"/>
<path d="M38.5 18.7H49.5V20.9H38.5V18.7Z" fill="#00CACD"/>
<path d="M38.5 23.1H49.5V25.3H38.5V23.1Z" fill="#00CACD"/>
<path d="M38.5 27.5H49.5V29.7H38.5V27.5Z" fill="#00CACD"/>
<path d="M47.3 31.9H49.5V34.1H47.3V31.9Z" fill="#00CACD"/>
<path d="M42.9 31.9H45.1V34.1H42.9V31.9Z" fill="#00CACD"/>
</svg>
