<svg width="88" height="88" viewBox="0 0 88 88" fill="none" xmlns="http://www.w3.org/2000/svg">
<path d="M77 18.7C73.9672 18.7 71.5 21.1671 71.5 24.2V26.3111C70.3966 25.103 69.0107 24.1837 67.4521 23.6471C69.2441 22.2353 70.4 20.0519 70.4 17.6C70.4 13.3542 66.9449 9.89995 62.7 9.89995C58.4551 9.89995 55 13.3542 55 17.6C55 19.7538 55.8908 21.7009 57.3223 23.1H46.75C46.5619 23.1 46.3817 23.1294 46.2 23.1559V5.49937H44V3.29937H46.2V1.09937H35.2V3.29937H37.4V5.49937H35.2V25.85L39.6 29.15V31.2292L30.4479 27.7092C32.01 26.2988 33 24.2657 33 22C33 17.7542 29.5449 14.3 25.3 14.3C21.0551 14.3 17.6 17.7542 17.6 22C17.6 24.4563 18.7604 26.6421 20.5568 28.0534C17.2799 29.1932 14.742 32.009 14.0732 35.5761L12.2218 45.4467C11.8579 47.3879 12.2989 49.3473 13.4642 50.9639C13.6533 51.2262 13.8654 51.4692 14.0889 51.7001H9.90009V69.3001H31.8988C32.2067 69.3001 32.5161 69.2681 32.8186 69.2033C33.9702 68.9568 34.9557 68.2772 35.5951 67.2891C36.233 66.3025 36.4486 65.1244 36.2011 63.9759L33.648 52.0561C32.8284 48.2391 29.5249 45.4065 25.671 45.1261L28.3184 36.3001L38.6079 40.3887C39.126 40.5955 39.6701 40.7001 40.228 40.7001H40.7397C43.144 40.7001 45.1 38.7441 45.1 36.3398C45.1 34.5489 43.9769 32.9121 42.3048 32.2698L41.8 32.0748V29.15L43.1146 28.1644C43.6258 29.6902 45.0514 30.8 46.7466 30.8H58.6969C59.2194 30.8 59.6726 31.1717 59.7738 31.6844L61.6001 40.81C58.0648 41.3708 55.118 44.0879 54.3401 47.7169L51.7977 63.9743C51.5493 65.1248 51.7658 66.302 52.4037 67.2885C53.0426 68.2765 54.0297 68.9562 55.1831 69.2036C55.4842 69.2674 55.7921 69.2993 56.1 69.2993H64.9V64.8993H71.5V69.2993H78.1V18.6994L77 18.7ZM19.8 22C19.8 18.9671 22.2672 16.5 25.3 16.5C28.3329 16.5 30.8 18.9671 30.8 22C30.8 25.0328 28.3329 27.5 25.3 27.5C22.2672 27.5 19.8 25.0328 19.8 22ZM12.1 53.9H19.468L25.0441 53.9009L27.5972 65.8217C27.6964 66.2813 27.8732 66.7081 28.102 67.0999H12.0998L12.1 53.9ZM42.9 36.3402C42.9 37.5315 41.9311 38.5005 40.7397 38.5005H40.228C39.9521 38.5005 39.6815 38.4489 39.4251 38.3463L28.8111 34.1005H26.6804L22.7214 47.2955L25.0731 47.3043C28.1487 47.3186 30.85 49.5121 31.4958 52.5186L34.049 64.4393C34.1722 65.0134 34.0657 65.6022 33.7465 66.0947C33.4273 66.5887 32.9338 66.9285 32.3582 67.0518C31.2066 67.2993 29.9977 66.5205 29.7467 65.3611L27.1956 53.4388C26.9766 52.4326 26.0721 51.701 25.0438 51.701H19.4681C17.7375 51.701 16.1603 50.9452 15.2498 49.6792C14.44 48.5561 14.1321 47.1964 14.384 45.8524L16.2354 35.9833C16.918 32.342 20.1006 29.701 23.8043 29.701H29.4967L41.5162 34.3244C42.3436 34.6421 42.9 35.4528 42.9 36.3407L42.9 36.3402ZM57.2 17.6C57.2 14.5671 59.6672 12.1 62.7 12.1C65.7329 12.1 68.2 14.5671 68.2 17.6C68.2 20.6328 65.7329 23.1 62.7 23.1C59.6672 23.1 57.2 20.6328 57.2 17.6ZM39.6 3.29995H41.8V5.49996H39.6V3.29995ZM37.4 20.9H39.6V18.7H37.4V16.5H41.8V14.3H37.4V12.1H39.6V9.89995H37.4V7.69995H44V24.2641C43.7127 24.5577 43.4809 24.903 43.2993 25.2762L40.7 27.2252L37.4 24.7502L37.4 20.9ZM54.252 66.093C53.9328 65.5999 53.8253 65.0126 53.9603 64.3757L56.5026 48.1171C57.1484 45.1108 59.8498 42.9162 62.9254 42.902L64.2606 42.8956L61.932 31.2523C61.6256 29.7167 60.2648 28.6 58.6974 28.6H46.7467C45.8392 28.6 45.1001 27.8594 45.1001 26.95C45.1001 26.0405 45.8406 25.3 46.7501 25.3H64.1955C67.5451 25.3 70.4557 27.4219 71.4997 30.5888V41.8C71.4997 44.8328 69.0326 47.3 65.9997 47.3H62.9571C61.9273 47.3 61.0232 48.0317 60.7934 49.1007L58.2511 65.3606C58.0345 66.3678 57.1314 67.0995 56.1007 67.0995C55.9455 67.0995 55.7904 67.0828 55.6431 67.0523C55.0655 66.9281 54.5706 66.5878 54.2519 66.0928L54.252 66.093ZM59.8885 67.0997C60.1272 66.6926 60.3109 66.2462 60.4145 65.7611L62.2688 53.8997H62.6999V67.0997H59.8885ZM64.8999 53.8997H71.4999V58.2997H64.8999V53.8997ZM64.8999 62.6997V60.4997H71.4999V62.6997H64.8999ZM73.6999 67.0997V53.7891C74.517 53.6221 75.2576 53.2587 75.8999 52.7725V67.1002L73.6999 67.0997ZM75.8999 48.3997C75.8999 50.2191 74.4193 51.6997 72.5999 51.6997H62.613L62.9573 49.4997H65.9999C70.2448 49.4997 73.6999 46.0454 73.6999 41.7997V24.1997C73.6999 22.7653 74.6197 21.542 75.8999 21.0877L75.8999 48.3997Z" fill="#00CACD"/>
</svg>
