<svg width="187" height="200" viewBox="0 0 187 200" fill="none" xmlns="http://www.w3.org/2000/svg">
<path d="M120.214 11.5479C103.167 21.4555 97 42.6534 106.439 58.8946C115.879 75.1359 137.35 80.2703 154.397 70.3626C171.444 60.455 177.611 39.2572 168.172 23.0159C158.732 6.77467 137.261 1.64027 120.214 11.5479Z" fill="#F1F3F3"/>
<path d="M117.106 6.20111C137.22 -5.48883 162.646 0.591305 173.784 19.7542C184.921 38.9171 177.618 64.0195 157.505 75.7094C137.391 87.3994 111.965 81.3192 100.827 62.1563C89.6899 42.9934 96.9929 17.8911 117.106 6.20111ZM151.289 65.0158C165.213 56.9236 170.269 39.543 162.56 26.2776C154.85 13.0122 137.245 8.80242 123.321 16.8947C109.398 24.987 104.342 42.3675 112.051 55.6329C119.761 68.8983 137.366 73.1081 151.289 65.0158Z" fill="#F1F3F3"/>
<path d="M24.8097 66.9968C7.76283 76.9045 1.59577 98.1023 11.0352 114.344C20.4746 130.585 41.9459 135.719 58.9928 125.812C76.0397 115.904 82.2067 94.7061 72.7673 78.4648C63.3279 62.2236 41.8566 57.0892 24.8097 66.9968Z" fill="#F1F3F3"/>
<path d="M21.7021 61.65C41.8156 49.9601 67.2419 56.0402 78.3793 75.2031C89.5168 94.3661 82.2138 119.468 62.1004 131.158C41.9869 142.848 16.5607 136.768 5.42318 117.605C-5.7143 98.4424 1.58869 73.34 21.7021 61.65ZM55.8853 120.465C69.8087 112.372 74.8652 94.9919 67.1553 81.7266C59.4455 68.4611 41.8407 64.2514 27.9173 72.3436C13.9938 80.4359 8.93735 97.8165 16.6472 111.082C24.357 124.347 41.9619 128.557 55.8853 120.465Z" fill="#F1F3F3"/>
<path d="M166.618 20.3425C169.721 18.5388 173.619 19.4708 175.337 22.4276C199.328 63.7049 183.6 117.766 140.275 142.947C137.172 144.75 133.274 143.818 131.555 140.861C129.837 137.905 130.956 134.057 134.06 132.253C171.195 110.67 184.676 64.3307 164.113 28.951C162.395 25.9942 163.514 22.1462 166.618 20.3425Z" fill="#F1F3F3"/>
<path d="M71.2136 75.7914C74.317 73.9877 78.2146 74.9198 79.9331 77.8765C103.923 119.154 88.1955 173.215 44.8707 198.395C41.7673 200.199 37.8696 199.267 36.1511 196.31C34.4327 193.354 35.5522 189.506 38.6556 187.702C75.7903 166.119 89.2718 119.78 68.7091 84.3999C66.9906 81.4432 68.1101 77.5952 71.2136 75.7914Z" fill="#F1F3F3"/>
</svg>
