<svg width="88" height="88" viewBox="0 0 88 88" fill="none" xmlns="http://www.w3.org/2000/svg">
<path d="M69.3365 19.4832C71.3077 18.0871 72.6001 15.7937 72.6001 13.2C72.6001 8.95421 69.1459 5.49996 64.9001 5.49996C60.6544 5.49996 57.2001 8.95421 57.2001 13.2C57.2001 15.7938 58.4926 18.0871 60.4638 19.4832C55.3641 21.3114 51.7001 26.18 51.7001 31.9V34.211C49.1933 34.7227 47.3001 36.9432 47.3001 39.6V63.8C47.3001 65.6194 45.8196 67.1 44.0001 67.1C42.1807 67.1 40.7001 65.6194 40.7001 63.8V52.8C40.7001 49.7671 38.233 47.3 35.2001 47.3H29.7001C27.8807 47.3 26.4001 45.8194 26.4001 44V40.7H28.6001V36.3H29.7001C35.1584 36.3 39.6001 31.8582 39.6001 26.4C39.6001 23.6853 37.6181 21.4368 35.0263 20.9932C34.9128 20.6421 34.7478 20.318 34.5313 20.0298L37.5562 17.4703C39.5539 15.7796 40.7001 13.31 40.7001 10.6921V9.97806C40.7001 5.08299 36.7169 1.09999 31.822 1.09999C29.4506 1.09999 27.2206 2.02419 25.5441 3.70026L25.3 3.94481L25.056 3.70075C23.3794 2.02423 21.1495 1.09998 18.778 1.09998C13.883 1.09998 9.89996 5.08311 9.89996 9.97804V10.6921C9.89996 13.3089 11.0461 15.7796 13.0428 17.4693L16.0678 20.0302C15.8512 20.3185 15.6862 20.6431 15.5728 20.9937C12.9819 21.4367 10.9999 23.6853 10.9999 26.3999C10.9999 31.8582 15.4416 36.3 20.8999 36.3H21.9999V40.7H24.1999V44C24.1999 47.0328 26.667 49.5 29.6999 49.5H35.1999C37.0194 49.5 38.4999 50.9805 38.4999 52.8V63.8C38.4999 66.8328 40.967 69.2999 43.9999 69.2999C47.0328 69.2999 49.4999 66.8328 49.4999 63.8V39.6C49.4999 38.1679 50.4226 36.9579 51.6999 36.5022V39.6C51.6999 42.6328 54.167 45.1 57.1999 45.1V64.8999C57.1999 67.3264 59.1735 69.2999 61.5999 69.2999C62.9199 69.2999 64.0926 68.7038 64.8999 67.7796C65.7072 68.7038 66.8799 69.2999 68.1999 69.2999C70.6263 69.2999 72.5999 67.3264 72.5999 64.8999V45.1C75.6328 45.1 78.0999 42.6328 78.0999 39.6V31.9C78.0999 26.1799 74.436 21.3114 69.3362 19.4832L69.3365 19.4832ZM33 22C33 22.6059 32.506 23.1 31.9 23.1C31.294 23.1 30.8 22.6059 30.8 22C30.8 21.394 31.294 20.9 31.9 20.9C32.506 20.9 33 21.394 33 22ZM12.1 9.97803C12.1 6.29649 15.0965 3.29996 18.7781 3.29996C20.5621 3.29996 22.2386 3.99384 23.5001 5.25595L25.2999 7.05517L27.0996 5.25545C28.3611 3.99391 30.0377 3.29996 31.8217 3.29996C35.5032 3.29996 38.4997 6.29649 38.4997 9.97803V10.6921C38.4997 11.1704 38.4467 11.6413 38.348 12.0999H30.21L28.8439 14.1502L26.5977 8.53278L23.2638 14.0897L20.0109 6.50074L17.0115 10.9999H12.1165C12.112 10.8978 12.0998 10.7951 12.0998 10.692L12.1 9.97803ZM12.597 13.2H18.1884L19.5889 11.1002L22.9361 18.9112L26.2021 13.4681L28.355 18.8502L31.3884 14.3H37.434C37.0799 14.8509 36.6487 15.3572 36.1361 15.7903L32.6038 18.7789C32.3764 18.7293 32.1422 18.6998 31.9001 18.6998C30.0806 18.6998 28.6001 20.1804 28.6001 21.9998C28.6001 22.0529 28.6133 22.101 28.6153 22.154L25.3001 24.959L21.9849 22.154C21.9868 22.101 22.0001 22.0529 22.0001 21.9998C22.0001 20.1804 20.5195 18.6998 18.7001 18.6998C18.458 18.6998 18.2237 18.7293 17.9959 18.7789L14.4636 15.7893C13.6278 15.0822 12.9987 14.189 12.5969 13.1998L12.597 13.2ZM18.7 20.9C19.306 20.9 19.8 21.394 19.8 22C19.8 22.6059 19.306 23.1 18.7 23.1C18.094 23.1 17.6 22.6059 17.6 22C17.6 21.394 18.094 20.9 18.7 20.9ZM13.2 26.4C13.2 24.8786 14.2396 23.6072 15.6421 23.2277C16.1303 24.4396 17.3153 25.3 18.7 25.3C19.6384 25.3 20.4811 24.9027 21.0827 24.2717L25.3 27.8408L29.5174 24.2712C30.1189 24.9027 30.9616 25.2999 31.9 25.2999C33.2849 25.2999 34.4697 24.4396 34.9579 23.2277C36.3604 23.6073 37.4 24.8787 37.4 26.3999C37.4 30.6457 33.9458 34.1 29.7 34.1H20.9C16.6543 34.1 13.2 30.6457 13.2 26.3999V26.4ZM26.4 36.3V38.5H24.2V36.3H26.4ZM59.4 13.2C59.4 10.1671 61.8672 7.69996 64.9 7.69996C67.9329 7.69996 70.4 10.1671 70.4 13.2C70.4 16.2328 67.9329 18.7 64.9 18.7C61.8672 18.7 59.4 16.2328 59.4 13.2ZM53.9 39.6V36.3H57.2V42.9C55.3806 42.9 53.9 41.4194 53.9 39.6ZM75.9 39.6C75.9 41.4194 74.4195 42.9 72.6 42.9V28.6H70.4V64.9C70.4 66.1134 69.4134 67.1 68.2 67.1C66.9866 67.1 66 66.1134 66 64.9V41.8H63.8V64.9C63.8 66.1134 62.8134 67.1 61.6 67.1C60.3866 67.1 59.4 66.1134 59.4 64.9V38.989C60.0502 39.3671 60.7947 39.6004 61.6 39.6004C64.0264 39.6004 66 37.6268 66 35.2004C66 32.774 64.0264 30.8004 61.6 30.8004C60.7947 30.8004 60.0502 31.0336 59.4 31.4118V28.6004H57.2V34.1004H53.9V31.9004C53.9 25.8352 58.8348 20.9004 64.9 20.9004C70.9652 20.9004 75.9 25.8352 75.9 31.9004V39.6ZM59.4 35.2C59.4 33.9865 60.3866 33 61.6 33C62.8134 33 63.8 33.9865 63.8 35.2C63.8 36.4134 62.8134 37.4 61.6 37.4C60.3866 37.4 59.4 36.4134 59.4 35.2Z" fill="#00CACD"/>
</svg>
