<svg width="88" height="88" viewBox="0 0 88 88" fill="none" xmlns="http://www.w3.org/2000/svg">
<path d="M74.2456 31.2174C73.6308 28.3308 72.5141 25.6305 70.918 23.1677L72.9938 19.8029L67.0966 13.9056L63.7317 15.9814C61.269 14.3855 58.5671 13.2688 55.6821 12.6539L54.7702 8.80049H46.4298L45.5169 12.6549C42.593 13.2785 39.8582 14.4169 37.3691 16.0463L35.1096 15.099L32.1033 18.1053C31.4541 17.7842 30.7843 17.5003 30.0894 17.2725C32.4996 15.7021 34.0999 12.9859 34.0999 9.90046C34.0999 5.04814 30.1522 1.10046 25.2999 1.10046C20.4476 1.10046 16.4999 5.04814 16.4999 9.90046C16.4999 12.9859 18.1002 15.7019 20.5104 17.2725C14.3582 19.2922 9.8999 25.0815 9.8999 31.9006V39.6006C9.8999 42.6334 12.367 45.1006 15.3999 45.1006H16.4999V64.35C16.4999 67.0788 18.721 69.3 21.4499 69.3C23.013 69.3 24.3924 68.5575 25.2999 67.4236C26.2074 68.5574 27.5868 69.3 29.1499 69.3C31.8788 69.3 34.0999 67.0788 34.0999 64.35V58.8322L37.4834 56.6288C39.9417 58.2194 42.6392 59.3327 45.5168 59.9466L46.4297 63.8H54.7701L55.683 59.9456C58.5685 59.3307 61.2698 58.2141 63.7326 56.618L67.0974 58.6948L72.9947 52.7976L70.9189 49.4327C72.5148 46.97 73.6316 44.2681 74.2464 41.3841L78.0998 40.4702V32.1298L74.2456 31.2174ZM18.7 9.89999C18.7 6.26018 21.6602 3.29999 25.3 3.29999C28.9398 3.29999 31.9 6.26018 31.9 9.89999C31.9 13.5398 28.9398 16.5 25.3 16.5C21.6602 16.5 18.7 13.5398 18.7 9.89999ZM29.15 67.1C27.634 67.1 26.4 65.8669 26.4 64.35V39.5994H24.2V64.35C24.2 65.8669 22.9659 67.1 21.45 67.1C19.934 67.1 18.7 65.8669 18.7 64.35V26.3994H16.5V42.8994H15.4C13.5805 42.8994 12.1 41.4188 12.1 39.5994V31.8994C12.1 24.6208 18.0214 18.6994 25.3 18.6994C32.5786 18.6994 38.5 24.6208 38.5 31.8994V39.5994C38.5 41.4188 37.0194 42.8994 35.2 42.8994H34.2935C34.2286 42.7398 34.1604 42.5836 34.1 42.422V33.1481L34.5567 32.7675C35.664 31.8443 36.3 30.4869 36.3 29.0447C36.3 26.3728 34.1265 24.1993 31.4545 24.1993H31.2522C30.2961 24.1993 29.3822 24.4743 28.5999 24.987C27.8191 24.4743 26.9038 24.1993 25.9476 24.1993H25.7453C23.0733 24.1993 20.8999 26.3728 20.8999 29.0447C20.8999 30.4871 21.5358 31.8434 22.6431 32.767L28.5999 37.7312L31.8999 34.9812V64.3493C31.8999 65.8662 30.6658 67.0993 29.1499 67.0993L29.15 67.1ZM33.1483 31.0778L28.6 34.8675L24.0516 31.0778C23.4466 30.573 23.0999 29.8325 23.0999 29.0448C23.0999 27.5862 24.2869 26.3994 25.7453 26.3994H25.9477C26.6548 26.3994 27.3192 26.6744 27.8187 27.1748L28.6019 27.9526L29.3798 27.1748C29.8802 26.6744 30.5446 26.3994 31.2523 26.3994H31.4546C32.9132 26.3994 34.1 27.5863 34.1 29.0448C34.1 29.8324 33.7533 30.5729 33.1483 31.0778H33.1483ZM40.7 39.5994V35.1994H44.4204L48.6446 43.6472L52.6587 30.5993L56.8255 48.3087L62.2798 37.3991H68.1438C67.5722 46.5905 59.9335 53.8991 50.6004 53.8991C44.2523 53.8991 38.4606 50.4538 35.3575 45.0839C38.3157 44.998 40.7004 42.5779 40.7004 39.5991L40.7 39.5994ZM60.9199 35.1994L57.5747 41.8897L52.9415 22.1991L48.1556 37.7512L45.7793 32.9991H40.6997V31.8991C40.6997 28.8928 39.8207 26.0931 38.3249 23.7194C41.5973 20.5309 46.0151 18.6991 50.5997 18.6991C59.933 18.6991 67.5712 26.0078 68.1432 35.1991L60.9199 35.1994ZM75.9 38.7292L72.3514 39.5709L72.2218 40.278C71.6585 43.36 70.476 46.2214 68.7052 48.7833L68.2961 49.3741L70.2079 52.4718L66.7703 55.9073L63.6736 53.9966L63.0819 54.4057C60.521 56.1745 57.659 57.3589 54.5766 57.9213L53.8694 58.0499L53.0297 61.5993H48.1701L47.3284 58.0499L46.6212 57.9213C43.5392 57.358 40.6778 56.1745 38.1159 54.4057L37.5099 53.9853L34.0999 56.2059V47.239C37.7157 52.6727 43.8835 56.0993 50.5999 56.0993C61.5175 56.0993 70.3999 47.2168 70.3999 36.2993C70.3999 25.3818 61.5175 16.4993 50.5999 16.4993C45.5463 16.4993 40.6744 18.4773 37.0165 21.929C36.1532 20.916 35.1632 20.0148 34.0661 19.2537L35.6213 17.6985L37.6209 18.5368L38.1159 18.1945C40.6779 16.4257 43.5389 15.2422 46.6213 14.6779L47.3284 14.5482L48.1706 10.9993H53.0302L53.8704 14.5479L54.5776 14.6775C57.6596 15.2417 60.522 16.4243 63.0829 18.1941L63.6746 18.6022L66.7714 16.6914L70.2089 20.129L68.2971 23.2257L68.7062 23.8174C70.476 26.3784 71.6595 29.2404 72.2228 32.3228L72.3524 33.0299L75.9005 33.8696L75.9 38.7292Z" fill="#00CACD"/>
<path d="M43.0282 47.1127C42.4782 46.7277 41.9513 46.2955 41.4617 45.8246L39.9384 47.4117C40.5095 47.9598 41.1244 48.4656 41.7667 48.9144L43.0282 47.1127Z" fill="#00CACD"/>
<path d="M46.6563 48.9016C46.015 48.7003 45.3814 48.4474 44.7755 48.1483L43.8022 50.1205C44.5118 50.4702 45.2508 50.7663 46.0012 51.0005L46.6563 48.9016Z" fill="#00CACD"/>
<path d="M50.6 49.5C49.94 49.5 49.278 49.4504 48.6332 49.3536L48.3066 51.5305C49.0599 51.643 49.8309 51.6999 50.6613 51.6999L50.6 49.5Z" fill="#00CACD"/>
</svg>
