<svg width="18" height="18" viewBox="0 0 18 18" fill="none" xmlns="http://www.w3.org/2000/svg">
<path fill-rule="evenodd" clip-rule="evenodd" d="M2.25599 6.80149C4.04331 10.6933 7.22382 13.7875 11.1775 15.4641L11.19 15.4694L11.9538 15.8098C12.9265 16.2432 14.0697 15.9354 14.6933 15.0723L15.9677 13.3086C16.0455 13.2009 16.0254 13.0511 15.922 12.9676L13.6973 11.1728C13.5867 11.0836 13.424 11.1044 13.3394 11.2185L12.4736 12.3869C12.2633 12.6707 11.8835 12.7693 11.5618 12.6237C8.60542 11.2857 6.22969 8.91004 4.89175 5.95365C4.74613 5.63188 4.84473 5.25213 5.12848 5.04185L6.29686 4.17598C6.41103 4.09137 6.43182 3.92875 6.34258 3.81815L4.54754 1.59311C4.46411 1.48969 4.31437 1.46961 4.20664 1.54738L2.43334 2.82754C1.56455 3.45473 1.2586 4.60757 1.70206 5.58303L2.2554 6.80019C2.2556 6.80063 2.2558 6.80106 2.25599 6.80149ZM10.5856 16.8424C6.28963 15.0188 2.83426 11.6558 0.892223 7.42604L0.891053 7.42354L0.336553 6.20382C-0.402547 4.57807 0.107373 2.65665 1.55536 1.61134L3.32865 0.331181C4.08277 -0.213229 5.131 -0.0726193 5.71499 0.651271L7.51003 2.87632C8.13463 3.65049 7.98913 4.78889 7.18993 5.38113L6.52042 5.87729C7.65143 8.07164 9.44372 9.86404 11.6381 10.9949L12.1343 10.3254C12.7265 9.52634 13.8649 9.38084 14.6391 10.0054L16.8638 11.8001C17.5879 12.3843 17.7284 13.433 17.1835 14.1871L15.9091 15.9508C14.8698 17.3893 12.9644 17.9023 11.3434 17.18L10.5856 16.8424Z" fill="#00CACD"/>
</svg>
