<svg width="16" height="19" viewBox="0 0 16 19" fill="none" xmlns="http://www.w3.org/2000/svg">
<path fill-rule="evenodd" clip-rule="evenodd" d="M3.43164 8.07863C3.43164 5.5999 5.47696 3.5905 8 3.5905C10.5231 3.5905 12.5684 5.5999 12.5684 8.07863C12.5684 10.5574 10.5231 12.5668 8 12.5668C5.47696 12.5668 3.43164 10.5574 3.43164 8.07863ZM8 5.38575C6.48623 5.38575 5.25898 6.59139 5.25898 8.07863C5.25898 9.56581 6.48623 10.7715 8 10.7715C9.51377 10.7715 10.741 9.56581 10.741 8.07863C10.741 6.59139 9.51377 5.38575 8 5.38575Z" fill="#00CACD"/>
<path fill-rule="evenodd" clip-rule="evenodd" d="M0.0284075 7.03408C0.36191 3.05914 3.74296 0 7.80265 0H8.19735C12.2571 0 15.6381 3.05914 15.9716 7.03408C16.1503 9.16476 15.4804 11.2805 14.103 12.9355L9.72367 18.1973C8.83278 19.2676 7.16722 19.2676 6.27633 18.1973L1.89706 12.9355C0.519561 11.2804 -0.150355 9.16476 0.0284075 7.03408ZM7.80265 1.79525C4.69398 1.79525 2.10495 4.13776 1.84958 7.18155C1.7097 8.8487 2.23388 10.5041 3.31169 11.7991L7.69094 17.0609C7.85065 17.2527 8.14936 17.2527 8.30907 17.0609L12.6884 11.7991C13.7661 10.5041 14.2903 8.8487 14.1505 7.18155C13.895 4.13776 11.306 1.79525 8.19735 1.79525H7.80265Z" fill="#00CACD"/>
</svg>
