<svg width="13" height="9" viewBox="0 0 13 9" fill="none" xmlns="http://www.w3.org/2000/svg">
<path fill-rule="evenodd" clip-rule="evenodd" d="M0.133405 2.32554C-0.0605357 3.8776 -0.0518889 5.66764 0.217983 7.21339C0.367311 8.0687 1.17776 8.72437 2.17818 8.79932L3.22371 8.87755C5.4038 9.04082 7.59617 9.04082 9.77628 8.87755L10.8218 8.79932C11.8222 8.72437 12.6327 8.0687 12.782 7.21339C13.0519 5.66764 13.0605 3.87772 12.8666 2.32563C12.8415 2.14569 12.8133 1.966 12.782 1.78661C12.6327 0.931308 11.8222 0.275605 10.8218 0.2007L9.77628 0.12242C7.59617 -0.0408066 5.4038 -0.0408066 3.22371 0.12242L2.17818 0.2007C1.17776 0.275605 0.367311 0.931308 0.217983 1.78661C0.18667 1.96597 0.15848 2.14563 0.133405 2.32554ZM3.31364 1.01349C5.43385 0.854739 7.56612 0.854739 9.68635 1.01349L10.7319 1.09177C11.2541 1.13087 11.6771 1.47314 11.7551 1.91961C11.7632 1.96598 11.7711 2.01236 11.7788 2.05877L7.92889 3.90098C7.04026 4.32619 5.95972 4.32619 5.07108 3.90098L1.22125 2.0588C1.22891 2.01238 1.23679 1.96598 1.24488 1.91961C1.32283 1.47314 1.74589 1.13087 2.26811 1.09177L3.31364 1.01349ZM11.9058 3.02115C12.0401 4.37335 11.9898 5.7358 11.7551 7.08036C11.6771 7.52685 11.2541 7.86912 10.7319 7.90824L9.68635 7.98653C7.56612 8.14526 5.43385 8.14526 3.31364 7.98653L2.26811 7.90824C1.74589 7.86912 1.32283 7.52685 1.24488 7.08036C1.01013 5.7358 0.959897 4.37341 1.09418 3.02117L4.56676 4.68282C5.76906 5.25812 7.23091 5.25812 8.43316 4.68282L11.9058 3.02115Z" fill="white"/>
</svg>
