<svg width="16" height="17" viewBox="0 0 16 17" fill="none" xmlns="http://www.w3.org/2000/svg">
<path d="M15.3528 13.6358C15.7492 9.59059 15.7263 5.51495 15.2845 1.4744C15.1464 0.210578 13.6904 -0.421828 12.6782 0.342355L8.81449 3.25944C7.59652 4.17898 6.11591 4.68016 4.59196 4.68872L0.971476 4.70905C0.449289 4.71198 0.0283681 5.1393 0.0313119 5.66351L0.0535202 9.61827C0.056464 10.1425 0.482157 10.565 1.00434 10.5621L4.62482 10.5418C6.14878 10.5332 7.63493 11.0178 8.86314 11.9236L12.7593 14.7971C13.7801 15.5499 15.2289 14.9011 15.3528 13.6358Z" fill="#363839"/>
<path d="M5.18903 12.6446C5.24214 12.4312 5.19406 12.2051 5.05876 12.0322C4.92345 11.8593 4.71613 11.7588 4.49706 11.76L2.60608 11.7706C2.33748 11.7721 2.09279 11.9259 1.97403 12.1677L1.0392 14.0713C0.879547 14.3965 0.988715 14.79 1.29274 14.9856L3.31777 16.2879C3.51004 16.4115 3.74984 16.4346 3.96204 16.35C4.17424 16.2654 4.33288 16.0834 4.38824 15.8611L5.18903 12.6446Z" fill="#363839"/>
</svg>
