<svg width="16" height="17" viewBox="0 0 16 17" fill="none" xmlns="http://www.w3.org/2000/svg">
<path d="M12.9101 0.925293C11.4511 0.925293 10.2684 2.04582 10.2684 3.42804C10.2684 3.64868 10.2985 3.86265 10.3551 4.06646C10.2927 4.07867 10.2311 4.09971 10.1723 4.13012L7.74483 5.38447L4.6571 7.05604C4.62554 7.07312 4.59603 7.0923 4.56866 7.11328C4.17468 6.89205 3.71478 6.76504 3.22358 6.76504C1.76456 6.76504 0.581787 7.88552 0.581787 9.26779C0.581787 10.6501 1.76456 11.7705 3.22358 11.7705C3.99328 11.7705 4.6861 11.4587 5.16895 10.9611L7.74606 12.3175L10.3478 13.6619C10.2959 13.8576 10.2684 14.0624 10.2684 14.2733C10.2684 15.6556 11.4511 16.776 12.9101 16.776C14.3692 16.776 15.5519 15.6556 15.5519 14.2733C15.5519 12.891 14.3692 11.7705 12.9101 11.7705C12.149 11.7705 11.4629 12.0755 10.9808 12.5636L8.38537 11.2224L5.79166 9.85727C5.83984 9.66823 5.86537 9.47085 5.86537 9.26779C5.86537 8.81755 5.73988 8.39508 5.52022 8.0301L8.3889 6.47711L10.8047 5.2287C10.8638 5.1982 10.9159 5.16039 10.9607 5.11711C11.4437 5.61718 12.1383 5.93079 12.9101 5.93079C14.3692 5.93079 15.5519 4.81027 15.5519 3.42804C15.5519 2.04582 14.3692 0.925293 12.9101 0.925293Z" fill="#363839"/>
</svg>
