<svg width="19" height="15" viewBox="0 0 19 15" fill="none" xmlns="http://www.w3.org/2000/svg">
<path fill-rule="evenodd" clip-rule="evenodd" d="M0.194976 3.87589C-0.0884752 6.46267 -0.0758376 9.44607 0.31859 12.0223C0.536839 13.4478 1.72135 14.5406 3.1835 14.6655L4.71158 14.7959C7.89787 15.068 11.1021 15.068 14.2884 14.7959L15.8165 14.6655C17.2786 14.5406 18.4632 13.4478 18.6814 12.0223C19.0758 9.44607 19.0885 6.46287 18.805 3.87604C18.7683 3.57615 18.7272 3.27667 18.6814 2.97768C18.4632 1.55218 17.2786 0.459342 15.8165 0.3345L14.2884 0.204033C11.1021 -0.068011 7.89787 -0.068011 4.71158 0.204033L3.1835 0.3345C1.72135 0.459342 0.536839 1.55218 0.31859 2.97768C0.272825 3.27661 0.231624 3.57605 0.194976 3.87589ZM4.84301 1.68915C7.94178 1.42456 11.0582 1.42456 14.157 1.68915L15.685 1.81961C16.4482 1.88478 17.0666 2.45524 17.1805 3.19935C17.1923 3.27663 17.2039 3.35394 17.2151 3.43129L11.5884 6.50163C10.2896 7.21031 8.71036 7.21031 7.41158 6.50163L1.78491 3.43133C1.7961 3.35397 1.80761 3.27664 1.81944 3.19935C1.93337 2.45524 2.55169 1.88478 3.31493 1.81961L4.84301 1.68915ZM17.4008 5.03526C17.5971 7.28892 17.5236 9.55966 17.1805 11.8006C17.0666 12.5448 16.4482 13.1152 15.685 13.1804L14.157 13.3109C11.0582 13.5754 7.94178 13.5754 4.84301 13.3109L3.31493 13.1804C2.55169 13.1152 1.93337 12.5448 1.81944 11.8006C1.47634 9.55966 1.40293 7.28902 1.59919 5.03529L6.67449 7.8047C8.4317 8.76353 10.5683 8.76353 12.3254 7.8047L17.4008 5.03526Z" fill="#00CACD"/>
</svg>
