<svg width="16" height="19" viewBox="0 0 16 19" fill="none" xmlns="http://www.w3.org/2000/svg">
<path d="M5.5 6.5C5.5 5.25736 6.5074 4.25 7.75 4.25C8.9926 4.25 10 5.25736 10 6.5C10 7.7426 8.9926 8.75 7.75 8.75C6.5074 8.75 5.5 7.7426 5.5 6.5Z" fill="white"/>
<path fill-rule="evenodd" clip-rule="evenodd" d="M7.588 0C4.38566 0 1.71864 2.45623 1.45556 5.64777C1.31414 7.3635 1.84411 9.0671 2.93386 10.3999L6.5287 14.7962C7.1599 15.5682 8.3401 15.5682 8.9714 14.7962L12.5661 10.3999C13.6559 9.0671 14.1859 7.3635 14.0444 5.64777C13.7814 2.45623 11.1143 0 7.912 0H7.588ZM7.75 2.75C5.67893 2.75 4 4.42893 4 6.5C4 8.5711 5.67893 10.25 7.75 10.25C9.8211 10.25 11.5 8.5711 11.5 6.5C11.5 4.42893 9.8211 2.75 7.75 2.75Z" fill="white"/>
<path d="M3.08541 12.8292C3.45589 13.0144 3.60606 13.4649 3.42082 13.8354L1.96353 16.75H13.5365L12.0792 13.8354C11.8939 13.4649 12.0441 13.0144 12.4146 12.8292C12.7851 12.6439 13.2356 12.7941 13.4208 13.1646L15.4208 17.1646C15.5371 17.3971 15.5246 17.6732 15.388 17.8943C15.2513 18.1154 15.0099 18.25 14.75 18.25H0.750002C0.490072 18.25 0.248672 18.1154 0.112012 17.8943C-0.0246384 17.6732 -0.0370686 17.3971 0.0791814 17.1646L2.07918 13.1646C2.26442 12.7941 2.71493 12.6439 3.08541 12.8292Z" fill="white"/>
</svg>
