<svg width="10" height="11" viewBox="0 0 10 11" fill="none" xmlns="http://www.w3.org/2000/svg">
<path fill-rule="evenodd" clip-rule="evenodd" d="M1.28803 4.274C2.30847 6.71961 4.12434 8.66398 6.38164 9.71754L6.38878 9.72087L6.82486 9.93478C7.38021 10.2071 8.0329 10.0137 8.38894 9.47134L9.11654 8.36304C9.16096 8.29536 9.14948 8.20123 9.09045 8.14876L7.82029 7.02092C7.75714 6.96487 7.66425 6.97794 7.61595 7.04964L7.12163 7.78385C7.00156 7.96219 6.78472 8.02415 6.60105 7.93266C4.91314 7.09187 3.55675 5.59899 2.79288 3.74122C2.70974 3.53902 2.76603 3.30039 2.92803 3.16825L3.5951 2.62415C3.66029 2.57099 3.67216 2.4688 3.62121 2.3993L2.59635 1.0011C2.54872 0.93611 2.46323 0.923492 2.40172 0.972362L1.38928 1.77681C0.893259 2.17093 0.718581 2.89536 0.971768 3.50833L1.28769 4.27318C1.2878 4.27346 1.28792 4.27373 1.28803 4.274ZM6.04371 10.5837C3.59097 9.43772 1.61818 7.32443 0.509402 4.66646L0.508734 4.66489L0.19215 3.89843C-0.229828 2.87682 0.061303 1.66942 0.888012 1.01255L1.90045 0.208111C2.331 -0.133992 2.92947 -0.0456333 3.26289 0.409254L4.28774 1.80746C4.64434 2.29394 4.56127 3.0093 4.10498 3.38146L3.72274 3.69324C4.36847 5.07215 5.39176 6.19848 6.64462 6.90913L6.92791 6.48842C7.26602 5.98627 7.91598 5.89484 8.35799 6.28734L9.62815 7.41511C10.0416 7.78222 10.1218 8.44121 9.81068 8.91508L9.08308 10.0234C8.48971 10.9273 7.40185 11.2497 6.47636 10.7958L6.04371 10.5837Z" fill="white"/>
</svg>
