<svg width="88" height="88" viewBox="0 0 88 88" fill="none" xmlns="http://www.w3.org/2000/svg">
<path d="M73.7 49.5H73.0886C73.4667 48.8498 73.7 48.1053 73.7 47.3C73.7 44.8736 71.7264 42.9 69.3 42.9H68.5663L67.1 41.8V35.2H68.75C70.8729 35.2 72.6 33.4729 72.6 31.35V24.2C72.6 19.3831 69.1403 15.3636 64.5764 14.4836C66.1223 13.0748 67.1 11.0515 67.1 8.79998C67.1 4.55511 63.6449 1.09998 59.4 1.09998C55.1551 1.09998 51.7 4.55511 51.7 8.79998C51.7 10.9538 52.5908 12.9009 54.0223 14.3H32.4498C30.9064 14.3 29.582 15.2183 28.9681 16.5319C28.8453 16.5255 28.724 16.5 28.5998 16.5C24.3549 16.5 20.8998 19.9551 20.8998 24.2C20.8998 26.95 22.3538 29.3602 24.5278 30.7229C24.2562 30.8648 23.9832 31.0043 23.7259 31.1762C21.8898 32.3985 20.6139 34.2268 20.0806 36.3482L18.0918 32.9676C17.3037 31.6304 15.8506 30.8001 14.2988 30.8001C13.518 30.8001 12.7465 31.0093 12.0703 31.407C9.98126 32.6347 9.27852 35.3351 10.5062 37.4295L18.6364 51.2493C21.1945 55.5982 25.9181 58.2996 30.9613 58.2996H31.8998V62.6996H29.6998C26.6669 62.6996 24.1998 65.1667 24.1998 68.1996V69.2996H63.7998V68.1996C63.7998 65.1667 61.3326 62.6996 58.2998 62.6996H56.0998V58.2996H73.6998C76.1262 58.2996 78.0998 56.326 78.0998 53.8996C78.0998 51.4732 76.1262 49.4996 73.6998 49.4996L73.7 49.5ZM39.771 39.3898C41.5752 38.8408 42.8996 37.181 42.8996 35.2C42.8996 34.6436 42.7852 34.1167 42.5961 33.626L46.5517 30.8H49.4996V38.278L42.5662 42.9H42.111L39.771 39.3898ZM35.0381 32.5157C34.357 31.7821 33.5683 31.1682 32.6941 30.7096C34.8563 29.3445 36.2996 26.9402 36.2996 24.2C36.2996 23.4511 36.1798 22.7115 35.9686 22H48.3996C49.0066 22 49.4996 22.493 49.4996 23.1V28.6H45.8475L41.309 31.8415C40.5444 31.2017 39.573 30.8 38.4995 30.8C37.0881 30.8 35.8443 31.4796 35.038 32.5157L35.0381 32.5157ZM38.4996 32.9999C39.713 32.9999 40.6996 33.9865 40.6996 35.1999C40.6996 36.4134 39.713 37.3999 38.4996 37.3999C37.2862 37.3999 36.2996 36.4134 36.2996 35.1999C36.2996 33.9865 37.2862 32.9999 38.4996 32.9999ZM50.7965 40.0577C52.3233 39.0377 54.1029 38.4999 55.94 38.4999C57.9332 38.4999 59.9108 39.1589 61.5072 40.3557L64.9005 42.8999H46.5324L50.7965 40.0577ZM64.8991 40.15L62.8258 38.5948C60.8522 37.1151 58.4081 36.3 55.9396 36.3C54.4712 36.3 53.0422 36.6059 51.6992 37.1427V30.8H53.9552C53.9287 30.9817 53.8992 31.1619 53.8992 31.35C53.8992 33.4729 55.6263 35.2 57.7492 35.2H64.8992L64.8991 40.15ZM59.3991 18.0393L58.168 16.5003H60.6297L59.3991 18.0393ZM57.9249 19.7188L56.6952 20.9484L55.6885 16.9235L57.9249 19.7188ZM63.1081 16.925L62.1028 20.9489L60.8732 19.7192L63.1081 16.925ZM53.899 8.80023C53.899 5.76737 56.3661 3.30022 59.399 3.30022C62.4318 3.30022 64.899 5.76737 64.899 8.80023C64.899 11.8331 62.4318 14.3002 59.399 14.3002C56.3661 14.3002 53.899 11.8331 53.899 8.80023ZM32.4496 16.5002H53.3169L55.5037 25.2516L59.3999 21.3554L63.296 25.2516L65.362 16.9838C68.2977 18.0711 70.3999 20.8913 70.3999 24.2001V31.3501C70.3999 32.2596 69.6593 33.0001 68.7499 33.0001H57.7499C56.8404 33.0001 56.0999 32.2596 56.0999 31.3501C56.0999 30.4406 56.8404 29.7001 57.7499 29.7001H67.0999V23.1001H64.8999V27.5001H57.7499C56.672 27.5001 55.6996 27.948 54.9999 28.6639V28.6001H51.6999V23.1001C51.6999 21.2806 50.2193 19.8001 48.3999 19.8001H32.4492C31.5398 19.8001 30.7992 19.0596 30.7992 18.1501C30.7992 17.2406 31.5398 16.5001 32.4492 16.5001L32.4496 16.5002ZM23.0996 24.2002C23.0996 21.1674 25.5668 18.7002 28.5996 18.7002C28.6183 18.7002 28.6369 18.7046 28.6556 18.7046C28.9277 20.5638 30.5168 22.0002 32.4497 22.0002H33.6356C33.9366 22.6897 34.0997 23.439 34.0997 24.2002C34.0997 27.2331 31.6325 29.7002 28.5997 29.7002C25.5668 29.7002 23.0997 27.2331 23.0997 24.2002L23.0996 24.2002ZM22.0973 39.6405C21.9564 38.8366 21.9677 38.016 22.1302 37.2052C22.4755 35.4747 23.4768 33.9833 24.9441 33.0066C26.0323 32.2828 27.2973 31.8998 28.603 31.8998C30.8182 31.8998 32.8699 32.9978 34.0932 34.8368L34.1305 34.8928C34.1237 34.9964 34.0996 35.0951 34.0996 35.1997C34.0996 37.1346 35.3626 38.7625 37.1015 39.3512L40.9338 45.0997H69.3C70.5134 45.0997 71.5 46.0863 71.5 47.2997C71.5 48.5132 70.5134 49.4997 69.3 49.4997H39.214C39.4537 48.9983 39.6 48.4424 39.6 47.8497C39.6 45.7268 37.8729 43.9997 35.75 43.9997H32.3567C31.7812 43.9997 31.2381 43.6928 30.9419 43.1978L28.4439 39.033L26.5571 40.1649L29.0552 44.3297C29.7486 45.4837 31.0121 46.1997 32.3567 46.1997H35.75C36.6595 46.1997 37.4 46.9403 37.4 47.8497C37.4 48.7592 36.6595 49.4997 35.75 49.4997H30.9615C29.0213 49.4997 27.2048 48.4611 26.2207 46.7881L22.1375 39.8457L22.0973 39.6405ZM61.412 67.1002H26.5878C27.0421 65.8199 28.2654 64.9002 29.6998 64.9002H58.2998C59.7342 64.9002 60.9575 65.82 61.4117 67.1002H61.412ZM53.9 62.7002H34.1V58.3002H53.9V62.7002ZM73.7 56.1002H30.9622C26.6933 56.1002 22.697 53.8142 20.5333 50.1347L12.4031 36.3149C11.7893 35.269 12.1404 33.9171 13.1839 33.3042C13.5242 33.1053 13.9102 32.9997 14.2996 32.9997C15.076 32.9997 15.8033 33.4157 16.1972 34.083L24.3264 47.9028C25.6861 50.2128 28.1798 51.6526 30.8547 51.6925V51.7003H73.7006C74.9141 51.7003 75.9006 52.6869 75.9006 53.9003C75.9006 55.1138 74.9141 56.1003 73.7006 56.1003L73.7 56.1002Z" fill="#00CACD"/>
</svg>
