<svg width="467" height="420" viewBox="0 0 467 420" fill="none" xmlns="http://www.w3.org/2000/svg">
<path d="M325.592 94.9848L331.756 121.725L305.051 127.898L314.297 168.009L341.001 161.837L347.165 188.577L387.221 179.319L381.058 152.579L407.762 146.407L398.517 106.295L371.812 112.467L365.649 85.7268L325.592 94.9848ZM388.246 122.752L391.328 136.122L364.624 142.294L370.787 169.035L357.435 172.121L351.272 145.38L324.567 151.552L321.485 138.182L348.19 132.01L342.026 105.269L355.378 102.183L361.542 128.924L388.246 122.752Z" fill="#F8F8F8"/>
<path d="M173.067 73.9065C184.11 71.3543 191.021 60.2796 188.473 49.2219C185.924 38.1643 174.864 31.2432 163.822 33.7954C152.779 36.3476 145.867 47.4223 148.416 58.48C150.965 69.5376 162.024 76.4587 173.067 73.9065ZM166.903 47.1658C170.581 46.3157 174.271 48.6251 175.12 52.3079C175.969 55.9908 173.663 59.6861 169.985 60.5361C166.307 61.3862 162.617 59.0768 161.768 55.394C160.919 51.7111 163.226 48.0158 166.903 47.1658Z" fill="#F8F8F8"/>
<path d="M457.064 177.259L412.367 187.59C428.217 169.9 435.576 145.049 429.844 120.179C421.017 81.8855 384.367 57.1648 346.211 62.412L333.806 8.59064L252.464 27.3906C247.909 20.2674 239.273 16.3568 230.582 18.3655L223.232 20.0642C216.621 5.54529 200.486 -2.84384 184.362 0.882826L130.953 13.2269C114.829 16.9535 103.997 31.5753 104.41 47.5269L97.0603 49.2256C88.3691 51.2343 82.318 58.5394 81.3414 66.9412L0 85.7412L77.0454 420L341.022 358.989L344.143 368.499C349.711 385.464 367.011 395.23 384.395 391.212L442.438 377.797C459.823 373.779 471.099 357.408 468.672 339.718L452.372 220.596L466.305 217.376L457.064 177.259ZM416.491 123.265C424.138 156.437 403.402 189.662 370.275 197.319C337.148 204.975 303.968 184.211 296.322 151.039C288.676 117.867 309.411 84.6419 342.539 76.9854C375.666 69.3289 408.845 90.0927 416.491 123.265ZM306.663 254.269L328.14 319.718L174.621 355.2L159.212 288.348L92.451 303.778L49.3056 116.593L90.5897 107.052C95.1418 114.175 103.778 118.086 112.472 116.077L245.994 85.2166C254.685 83.2078 260.736 75.9028 261.713 67.5009L302.997 57.9592L307.949 79.4442C287.023 97.1314 276.4 125.611 282.972 154.125C288.704 178.994 306.196 198.102 328.185 207.047L283.488 217.377L292.734 257.488L306.663 254.269ZM159.088 348.835L104.969 314.968L148.939 304.805L159.088 348.835ZM332.86 65.5011C328.363 66.9774 324.11 68.875 320.087 71.1001L313.266 41.5065L259.857 53.8505L256.775 40.4802L323.536 25.0501L332.86 65.5011ZM95.008 70.827C94.1592 67.1442 96.4654 63.4489 100.143 62.5989L120.171 57.9699L118.631 51.2847C116.082 40.227 122.993 29.1524 134.036 26.6001L187.445 14.2561C198.487 11.7039 209.547 18.6249 212.096 29.6826L213.637 36.3678L233.665 31.7388C237.343 30.8887 241.033 33.1981 241.882 36.8809L248.046 63.6216C248.894 67.3045 246.588 70.9998 242.91 71.8498L109.389 102.71C105.711 103.56 102.021 101.251 101.172 97.5678L95.008 70.827ZM87.3176 403.546L16.4359 96.0283L83.1968 80.5982L86.2786 93.9686L32.8699 106.313L81.2755 316.319L168.262 370.755L332.44 332.809L336.738 345.898L87.3176 403.546ZM440.841 237.343L402.633 246.174L405.714 259.544L442.707 250.994L444.573 264.646L422.148 269.828L425.23 283.199L446.438 278.297L448.304 291.948L414.959 299.655L418.041 313.026L450.179 305.598L452.045 319.249L434.475 323.31L437.557 336.68L453.914 332.9L455.099 341.582C456.553 352.194 449.789 362.018 439.361 364.429L381.318 377.844C370.889 380.254 360.51 374.392 357.172 364.215L320.072 251.172L438.975 223.691L440.841 237.343ZM449.878 207.089L303.004 241.035L299.922 227.665L446.796 193.719L449.878 207.089Z" fill="#F8F8F8"/>
<path d="M233.159 243.092C226.675 214.961 203.659 194.919 176.768 190.76C184.42 181.246 187.831 168.466 184.882 155.672C179.783 133.551 157.67 119.713 135.58 124.819C113.489 129.924 99.6701 152.067 104.769 174.188C107.718 186.982 116.377 196.972 127.419 202.166C105.068 217.706 93.1528 245.82 99.6371 273.952L102.719 287.322L236.241 256.462L233.159 243.092ZM118.121 171.102C114.722 156.355 123.935 141.593 138.662 138.189C153.388 134.785 168.131 144.011 171.53 158.758C174.929 173.504 165.715 188.267 150.989 191.67C136.263 195.074 121.52 185.848 118.121 171.102ZM112.989 270.866C106.192 241.376 124.621 211.847 154.071 205.041C183.52 198.234 213.009 216.688 219.807 246.178L112.989 270.866Z" fill="#F8F8F8"/>
<path d="M172.562 285.263L185.914 282.177L188.996 295.547L175.643 298.633L172.562 285.263Z" fill="#F8F8F8"/>
<path d="M199.266 279.091L279.379 260.575L282.461 273.945L202.348 292.461L199.266 279.091Z" fill="#F8F8F8"/>
<path d="M178.725 312.004L285.543 287.315L288.624 300.686L181.807 325.374L178.725 312.004Z" fill="#F8F8F8"/>
<path d="M188.989 112.475L255.749 97.0445L258.831 110.415L192.07 125.845L188.989 112.475Z" fill="#F8F8F8"/>
<path d="M195.152 139.215L261.913 123.785L264.995 137.156L198.234 152.586L195.152 139.215Z" fill="#F8F8F8"/>
<path d="M201.316 165.956L268.077 150.526L271.158 163.896L204.398 179.326L201.316 165.956Z" fill="#F8F8F8"/>
<path d="M260.888 180.353L274.24 177.267L277.322 190.637L263.97 193.723L260.888 180.353Z" fill="#F8F8F8"/>
<path d="M234.184 186.525L247.536 183.439L250.618 196.809L237.266 199.895L234.184 186.525Z" fill="#F8F8F8"/>
</svg>
