<svg width="88" height="88" viewBox="0 0 88 88" fill="none" xmlns="http://www.w3.org/2000/svg">
<path d="M61.8703 51.3933C62.0672 52.1103 62.2739 52.8253 62.493 53.5374L64.5962 52.8906C64.384 52.1997 64.1827 51.5068 63.9902 50.8104L61.8703 51.3933Z" fill="#00CACD"/>
<path d="M63.1526 55.6437L65.2495 54.9812L65.9119 57.0791L63.815 57.7416L63.1526 55.6437Z" fill="#00CACD"/>
<path d="M65.125 61.9093L67.2416 61.3097C67.1743 61.0721 67.1031 60.8359 67.0294 60.5982L66.5816 59.178L64.4828 59.8399L64.9306 61.2591C64.9974 61.4737 65.0627 61.6918 65.1251 61.9093L65.125 61.9093Z" fill="#00CACD"/>
<path d="M20.9717 60.5981C20.7782 61.2095 20.6078 61.8337 20.4634 62.4514L22.6049 62.9498C22.737 62.3822 22.8922 61.8189 23.069 61.2601L23.2045 60.8309L21.1057 60.1689L20.9717 60.5981Z" fill="#00CACD"/>
<path d="M21.8026 57.9682L22.498 55.7687L24.5949 56.4316L23.8995 58.6311L21.8026 57.9682Z" fill="#00CACD"/>
<path d="M25.3591 54.0094C27.2806 47.9265 28.36 41.6103 28.5633 35.2365L26.3653 35.1663C26.1664 41.3395 25.1224 47.4568 23.2622 53.3445L23.1919 53.568L25.2884 54.2344L25.3591 54.0094Z" fill="#00CACD"/>
<path d="M68.2 39.6001H78.1V41.8001H68.2V39.6001Z" fill="#00CACD"/>
<path d="M70.4 44H78.1V46.2H70.4V44Z" fill="#00CACD"/>
<path d="M9.89999 26.4H19.8V28.6H9.89999V26.4Z" fill="#00CACD"/>
<path d="M9.89999 22H19.8V24.2H9.89999V22Z" fill="#00CACD"/>
<path d="M66.0114 22C66.0674 15.376 67.1487 8.83399 69.2431 2.54827L67.1575 1.85193C64.9864 8.36405 63.8663 15.1399 63.8114 22.0002H61.6006V24.2002H63.8006V32.9878C63.8006 33.9592 63.8281 34.9295 63.8722 35.8984L59.8209 44H55.0005V46.2H61.1801L64.1997 40.1624C64.6672 44.4062 65.5463 48.596 66.8377 52.6837L69.1266 59.9349C69.8613 62.2627 70.2816 64.6683 70.3793 67.1002H48.4007V57.7502C50.9184 57.0749 52.8007 55.781 52.8007 53.9002H50.6007C50.6007 54.5042 49.0661 55.4932 46.4614 55.9057L47.1376 51.7002H48.4007C50.8271 51.7002 52.8007 49.7266 52.8007 47.3002C52.8007 46.3553 52.4884 45.4178 51.9207 44.6602C50.9857 43.4128 49.7703 42.4194 48.4007 41.7398V30.8792C48.4007 26.6222 49.9077 22.6017 52.6499 19.4029C52.7423 19.675 52.8007 19.9598 52.8007 20.2554V21.3554L54.4124 22.9647C55.2074 23.7622 56.2638 24.2002 57.3898 24.2002C59.7111 24.2002 61.6007 22.3116 61.6007 19.9883C61.6007 19.015 61.4445 18.0534 61.1366 17.1283L61.0045 16.7354C59.8559 13.2881 57.1128 10.5445 53.6655 9.39633L53.2716 9.26423C52.3474 8.95633 51.3859 8.80017 50.4116 8.80017C48.0903 8.80017 46.2007 10.6888 46.2007 13.0121C46.2007 14.1362 46.6387 15.1935 47.4338 15.99L49.0454 17.6003H50.1454C50.4931 17.6003 50.8285 17.6686 51.1409 17.7948C47.9573 21.4209 46.2007 26.0099 46.2007 30.8778V40.9551C45.4847 40.7901 44.7466 40.6998 44.0007 40.6998C43.2547 40.6998 42.5176 40.7901 41.8007 40.9551V30.8778C41.8007 26.0093 40.0441 21.4199 36.8605 17.7948C37.1728 17.6686 37.5097 17.6003 37.8559 17.6003H38.9559L40.5675 15.9886C41.3626 15.1936 41.8006 14.1364 41.8006 13.0122C41.8006 10.689 39.911 8.8003 37.5897 8.8003C36.6149 8.8003 35.6539 8.95646 34.7297 9.26436L34.3358 9.39646C30.8885 10.5451 28.1449 13.2892 26.9968 16.7345L26.8637 17.1303C26.5568 18.0535 26.4006 19.015 26.4006 19.9883C26.4006 22.3115 28.2902 24.2002 30.6115 24.2002C31.7371 24.2002 32.7938 23.7622 33.5894 22.9662L35.2006 21.3569V20.2569C35.2006 19.9608 35.259 19.676 35.3514 19.4034C38.0934 22.6017 39.6006 26.6212 39.6006 30.8783V41.7388C38.2301 42.42 37.0157 43.4128 36.0796 44.6602C35.5129 45.4179 35.2006 46.3553 35.2006 47.3002C35.2006 49.7266 37.1742 51.7002 39.6006 51.7002H40.8611L41.5275 55.9033C38.9298 55.4898 37.4006 54.5032 37.4006 53.9002H35.2006C35.2006 55.781 37.0829 57.075 39.6006 57.7502V67.1002H17.6232C17.7209 64.6679 18.1413 62.2636 18.8749 59.936L21.1653 52.6838C23.1793 46.3048 24.2011 39.6786 24.2011 32.9881V32.416L30.4062 27.245L28.9973 25.5553L24.2011 29.5521V22.5361C24.2011 15.4917 23.0726 8.53281 20.8441 1.85236L18.758 2.54771C20.9099 9.00339 22.0011 15.7276 22.0011 22.5363V30.8005H9.90108V33.0005H22.0011C22.0001 39.4619 21.013 45.8611 19.0674 52.0211L16.776 59.2733C15.8641 62.1652 15.401 65.1695 15.401 68.2V69.3H41.801V58.1669C42.5214 58.2528 43.2619 58.2999 44.001 58.2999C44.74 58.2999 45.4806 58.2528 46.201 58.1669V69.3H72.601V68.2C72.601 65.1696 72.1379 62.1652 71.225 59.2723L68.9346 52.0201C67.432 47.2625 66.5082 42.3612 66.1615 37.3995H78.101V35.1995H66.0427C66.0177 34.4634 66.001 33.7262 66.001 32.9882V24.2005H78.101V22.0005L66.0114 22ZM49.9564 15.4L48.9895 14.4341C48.6104 14.0535 48.4012 13.5487 48.4012 13.012C48.4012 11.9022 49.3033 11.0001 50.4121 11.0001C51.1492 11.0001 51.8774 11.118 52.5758 11.3512L52.9696 11.4833C55.7639 12.4139 57.9879 14.638 58.9184 17.4321L59.0495 17.825C59.2833 18.5243 59.4011 19.2511 59.4011 19.9881C59.4011 21.098 58.499 22.0001 57.3902 22.0001C56.8613 22.0001 56.3432 21.7855 55.9681 21.4103L55.0012 20.4434V20.2553C55.0012 18.9574 54.4964 17.7385 53.5791 16.8213C52.6618 15.904 51.443 15.4001 50.146 15.4001L49.9564 15.4ZM33.0013 20.2553V20.4433L32.0344 21.4103C31.6592 21.7854 31.1421 22 30.6123 22C29.5035 22 28.6014 21.0979 28.6014 19.9881C28.6014 19.251 28.7192 18.5228 28.951 17.8264L29.0831 17.4306C30.0147 14.6379 32.2378 12.4134 35.0319 11.4829L35.4258 11.3507C36.1255 11.118 36.8532 11.0001 37.5904 11.0001C38.6993 11.0001 39.6014 11.9022 39.6014 13.0121C39.6014 13.5488 39.3922 14.0551 39.0131 14.4341L38.0461 15.4001H37.8571C36.5602 15.4001 35.3413 15.9049 34.4239 16.8213C33.5061 17.7376 33.0014 18.9574 33.0014 20.2553L33.0013 20.2553ZM37.4013 47.3002C37.4013 46.8273 37.5575 46.3588 37.8403 45.9802C39.2881 44.0517 41.5901 42.9002 44.0013 42.9002C46.4125 42.9002 48.7146 44.0517 50.1613 45.9802C50.4452 46.3588 50.6013 46.8273 50.6013 47.3002C50.6013 48.5136 49.6148 49.5002 48.4013 49.5002H47.1133C46.659 48.2199 45.4357 47.3002 44.0013 47.3002C42.5669 47.3002 41.3436 48.2199 40.8894 49.5002H39.6013C38.3879 49.5002 37.4013 48.5136 37.4013 47.3002H37.4013ZM43.7847 56.0914L42.9081 50.5638C42.9297 49.9755 43.4071 49.5002 44.0013 49.5002C44.594 49.5002 45.0718 49.9741 45.0934 50.5619L44.2036 56.0913C44.1334 56.0923 44.0715 56.1001 44.0013 56.1001C43.9251 56.1001 43.8593 56.0913 43.7847 56.0913L43.7847 56.0914Z" fill="#00CACD"/>
<path d="M68.2 26.4H78.1V28.6H68.2V26.4Z" fill="#00CACD"/>
</svg>
